grf
version=1
nRows=25
nColumns=28
inDegrees=no
endheader
time	ground_force_1_vx	ground_force_1_vy	ground_force_1_vz	ground_force_1_px	ground_force_1_py	ground_force_1_pz	ground_moment_1_mx	ground_moment_1_my	ground_moment_1_mz	ground_force_2_vx	ground_force_2_vy	ground_force_2_vz	ground_force_2_px	ground_force_2_py	ground_force_2_pz	ground_moment_2_mx	ground_moment_2_my	ground_moment_2_mz	ground_force_3_vx	ground_force_3_vy	ground_force_3_vz	ground_force_3_px	ground_force_3_py	ground_force_3_pz	ground_moment_3_mx	ground_moment_3_my	ground_moment_3_mz
      0.00000000	      0.48558577	      0.28800694	      2.53281035	    368.84871371	  -1257.78817883	      1.99533511	      0.06792242	      0.24560836	    134.58015729	      0.62219471	      0.31271235	      0.96299915	   -114.36222948	  -1343.76087799	      0.44937221	     -0.02940839	     -0.38033683	    455.74751121	      1.22651636	     -0.73852949	      3.68796769	    425.28017514	   -222.07153070	      0.24688068	     -0.07242053	      0.53199596	    259.05018862
      0.01000000	      0.53349075	      0.43792941	      2.01608775	    343.88298921	  -1240.31984383	      1.97605562	      0.07228601	      0.26138716	    143.22608908	      0.56845825	      0.16452158	      0.80862935	   -263.19265328	  -1325.82574689	      0.45473599	     -0.02831492	     -0.36619506	    438.80180763	      1.43686901	     -0.73879964	      4.29731583	    498.82509257	   -274.17323910	      0.37443921	     -0.08454147	      0.62103543	    302.40708139
      0.02000000	      0.43380182	      0.34459217	      1.59790811	    312.73834015	  -1252.34060774	      2.01371214	      0.04604908	      0.16651408	     91.24074844	      0.45086424	      0.43984217	      1.24639697	    -75.65521398	  -1476.45293139	      0.34113385	     -0.02430738	     -0.31436581	    376.69619789	      1.47797654	     -0.87353680	      4.17804706	    467.32335857	   -237.67641895	      0.29068118	     -0.10952891	      0.80459140	    391.78785647
      0.03000000	      0.49174134	      0.55076770	      1.62808129	    287.86703180	  -1243.29985989	      2.00976531	      0.09566462	      0.34592449	    189.54799557	      0.53813984	      0.17730561	      0.90416006	   -225.55278256	  -1252.32339290	      0.51850503	     -0.03120765	     -0.40360655	    483.63100413	      1.62516551	     -0.85821395	      4.42190033	    485.09552535	   -219.78473923	      0.25890652	     -0.14158272	      1.04005631	    506.44517017
      0.04000000	      0.28878457	      0.26815722	      2.17502497	    340.72879738	  -1249.12276884	      1.99371284	      0.06853860	      0.24783645	    135.80103207	      0.39257393	      0.53458397	      1.23968121	    -19.34828849	  -1399.41024290	      0.40906196	     -0.03156504	     -0.40822870	    489.16960061	      1.52448424	     -0.88619734	      4.32292132	    470.83686219	   -258.56660602	      0.33456435	     -0.10211678	      0.75014241	    365.27445490
      0.05000000	      0.40396277	      0.52889512	      1.97844454	    323.50737961	  -1335.30677445	      2.15969001	      0.04575036	      0.16543389	     90.64886429	      0.69977650	      0.46947477	      0.26237850	  -1535.77496959	   -118.99817343	      1.37975778	     -0.14003102	     -1.81101245	   2170.08808103	      1.42352549	     -0.69678674	      4.23851292	    497.58159381	   -283.94310557	      0.39415536	     -0.10577264	      0.77699810	    378.35156795
      0.06000000	      0.33644767	      0.63376784	      2.09986378	    357.95900632	  -1260.10168630	      2.00505327	      0.07552289	      0.27309176	    149.63958182	      0.59602850	      0.41045652	      1.78426461	    120.34746331	  -1600.42012063	      0.25032663	     -0.02296648	     -0.29702403	    355.91599878	      1.38450686	     -0.80689496	      4.73530213	    538.26916285	   -260.55455980	      0.35749839	     -0.12462556	      0.91549023	    445.78894589
      0.07000000	     -4.70445541	     -3.22735706	     -2.79555880	    584.56166513	  -1297.38767560	      1.95873403	      0.47652792	      1.72313110	    944.18306327	      0.22723972	     -3.91050476	      8.12195766	    406.90153941	  -1949.42525776	     -0.02243934	      0.01500558	      0.19406624	   -232.54441871	     39.02168219	    110.59222637	   -776.37810804	    483.65795834	   -544.82634217	      0.92602323	     -0.88609846	      6.50921459	   3169.59790385
      0.08000000	     -8.61952614	      6.12652688	     -1.44784550	   1316.33910527	   -545.48545897	      0.21718777	     -6.52773111	    -23.60435999	 -12933.91829508	      0.06581777	      1.19209523	     -4.64946979	    579.27217005	  -1908.16489285	      0.02311654	      0.00709407	      0.09174718	   -109.93820930	   -744.18879492	    629.67188233	  -2083.43445722	    513.34058207	   -539.11609418	      0.92259456	      2.09487128	    -15.38877138	  -7493.41059278
      0.09000000	     -1.08059420	      1.03371587	      3.80649211	    363.27907752	  -1227.94859508	      1.94368895	      0.51390685	      1.85829379	   1018.24493710	      0.91927954	      1.93174148	     -0.50318580	  12189.88973515	  -7818.18875645	     -4.15979212	      2.00927981	     25.98589117	 -31138.20269970	   -783.57050917	    391.46624803	  -2155.05789825	    509.12225189	   -546.10642806	      0.93577091	     -4.58389734	     33.67297498	  16396.72337012
      0.10000000	     -1.70029960	      1.48079545	      0.24394483	  -1711.89859873	  -1204.28751444	      2.94784692	      1.59084510	      5.75251642	   3152.06925339	     -0.00100941	      0.19124341	      3.14795667	    272.74475971	  -1671.61835119	      0.20074314	     -0.00941144	     -0.12171755	    145.85090210	   -705.01888092	    569.03031276	  -2028.20597169	    501.53975086	   -574.91679591	      0.99281727	     -3.10283385	     22.79319077	  11098.91965292
      0.11000000	     -0.04025286	      0.07209977	      0.61559102	    -56.91462866	  -1277.97010193	      2.24704924	      0.06542937	      0.23659345	    129.64047000	      0.79915056	      0.27912382	      0.59546458	   -902.26667569	   -784.52247609	      0.86523397	     -0.08437849	     -1.09126176	   1307.62996270	   -609.53945711	    633.27285810	  -1861.63680257	    493.94974982	   -601.94972802	      1.04621132	     -1.74006460	     12.78238742	   6224.25760464
      0.12000000	      0.10865138	      0.28411120	      1.19482473	    191.67888401	  -1304.12501593	      2.16931706	      0.13031453	      0.47121904	    258.20266191	      0.21640629	      0.35155607	      1.99217983	    129.97091935	  -1660.37579914	      0.20091255	     -0.01676547	     -0.21682679	    259.81778005	   -669.23294235	    618.73450150	  -1844.80106205	    493.98845797	   -618.17113664	      1.07953508	     -1.83632255	     13.48949126	   6568.57485064
      0.13000000	      0.34632888	      0.26217888	      0.52616065	     16.33455815	  -1720.95099935	      3.01851921	      0.06075679	      0.21969734	    120.38231262	      0.30802618	      0.34122492	      1.68655940	     96.00911124	  -1554.02900209	      0.28747110	     -0.01256236	     -0.16246827	    194.68141134	   -752.28444892	    535.10414062	  -1915.98391256	    495.27452481	   -623.27098408	      1.09036787	     -2.34283129	     17.21026747	   8380.37016325
      0.14000000	      0.19119795	      0.35680640	      1.36728343	    275.24234585	  -1349.82889286	      2.21055213	      0.10177137	      0.36800657	    201.64778704	      0.54017512	      0.65698054	      1.07379332	    -99.98768748	  -1443.48996694	      0.36707245	     -0.04266739	     -0.55181475	    661.22494991	   -818.25376948	    441.07735332	  -1955.10656614	    497.29823684	   -627.32945912	      1.09926827	     -2.66576341	     19.58250322	   9535.50698894
      0.15000000	      0.08143201	      0.03403814	      1.34782793	    220.56612507	  -1338.51442862	      2.21749828	      0.06778861	      0.24512450	    134.31502691	      0.50565653	      0.19411771	      1.31000191	    -30.49898588	  -1648.73358169	      0.20027361	     -0.01557583	     -0.20144128	    241.38173179	   -844.87847300	    369.35422403	  -1941.77614059	    498.42213139	   -633.79792434	      1.11286637	     -2.51728751	     18.49181011	   9004.40472589
      0.16000000	      0.22926615	      0.26856985	      1.68436046	    343.53073462	  -1204.79580005	      1.91140213	      0.08478540	      0.30658511	    167.99213453	      0.76180433	      0.47874742	      1.17169431	    -95.75765288	  -1432.84171803	      0.37623173	     -0.03825155	     -0.49470496	    592.79179866	   -853.16300190	    253.95759311	  -1911.46418600	    498.91344317	   -636.14938561	      1.11783278	     -2.10696778	     15.47763139	   7536.68009755
      0.17000000	      0.14638658	      0.28292964	      1.22755658	    284.48878201	  -1208.51891417	      1.94799520	      0.11112972	      0.40184649	    220.19024151	      0.56038836	      0.55601803	      1.70933894	     92.66310218	  -1550.74245119	      0.28999793	     -0.02708564	     -0.35029689	    419.75144864	   -856.89296824	    114.50349780	  -1880.76089750	    499.57241464	   -633.80127445	      1.11319482	     -2.04800053	     15.04446226	   7325.75265797
      0.18000000	      0.24510964	      0.23895891	      0.92840827	    155.65121099	  -1392.17200092	      2.34818565	      0.07882016	      0.28501471	    156.17271495	      0.40118791	      0.53137553	      1.20564209	    -63.40881711	  -1556.24041524	      0.27533871	     -0.03219053	     -0.41631808	    498.86288640	   -836.02123141	     -7.08345696	  -1800.87823407	    499.97647841	   -632.43226961	      1.11049634	     -2.16097597	     15.87437160	   7729.86883395
      0.19000000	      0.21837392	      0.17438863	      1.05558645	    272.19246841	  -1399.88235087	      2.30343880	      0.08888738	      0.32141790	    176.11970207	      0.45537882	      0.41147505	      2.12145402	    156.23855466	  -1643.73816350	      0.21649222	     -0.01948650	     -0.25201774	    301.98616266	   -766.07433033	   -117.08593992	  -1666.88038043	    499.36963629	   -630.49300326	      1.10634413	     -1.73333184	     12.73292908	   6200.17435339
      0.20000000	      0.24231437	      0.44006612	      1.58446162	    291.60996006	  -1239.25345854	      2.00049159	      0.12067534	      0.43636357	    239.10374171	      0.54341037	      0.54516476	      1.40126883	    120.57058920	  -1474.26447373	      0.35562221	     -0.03184838	     -0.41189311	    493.56056710	   -645.07678911	   -223.31400329	  -1468.18565115	    498.30899859	   -625.98552618	      1.09679088	     -1.08000218	      7.93361714	   3863.19669260
      0.21000000	      0.21280135	      0.32324865	      1.32561917	    276.05774038	  -1282.47303404	      2.08721637	      0.08517297	      0.30798655	    168.76004393	      0.67394445	      0.41589023	      1.41212334	     37.55811852	  -1421.08992262	      0.39464158	     -0.03508834	     -0.45379537	    543.77092755	   -466.37296369	   -302.27868463	  -1124.33403926	    497.23202899	   -617.26318061	      1.07857724	     -0.32548745	      2.39100706	   1164.27732654
      0.22000000	      0.42607090	      0.11471567	      1.31076046	    245.97478811	  -1234.53674982	      2.01491563	      0.06637592	      0.24001618	    131.51594259	      0.76508908	      0.35186118	      0.82280740	   -234.95936301	  -1242.39248868	      0.52618572	     -0.04766338	     -0.61642752	    738.64870687	   -270.83495236	   -268.34661106	   -609.01406370	    498.12326839	   -614.42648583	      1.07300085	     -0.30963904	      2.27458578	   1107.58713290
      0.23000000	      0.64744555	      0.38526233	      1.61275645	    291.53966396	  -1192.57318777	      1.91533573	      0.08338811	      0.30153247	    165.22355558	      0.47324453	      0.30039946	      0.93976900	   -251.18057906	  -1113.77095168	      0.63247806	     -0.03801380	     -0.49163008	    589.10725421	   -123.59321504	   -117.58987934	   -262.29515587	    497.55107229	   -640.67168175	      1.12673908	     -0.19625090	      1.44164474	    701.99470020
      0.24000000	      0.72200790	      0.32433000	      1.40933120	    307.56844920	  -1247.92825351	      2.00826884	      0.04085311	      0.14772536	     80.94554494	      0.45384688	      0.19768633	      0.27881313	  -2900.07159762	    474.91193844	      1.78736094	     -0.11428686	     -1.47806481	   1771.12577777	    -49.79049630	    -38.13442749	   -100.70108185	    495.92000697	   -684.84206231	      1.21699318	     -0.24522660	      1.80141667	    877.18209687
